<mxfile host="65bd71144e">
    <diagram id="I_GAe4o7Rx1UChfzCoYa" name="Page-1">
        <mxGraphModel dx="641" dy="582" grid="1" gridSize="10" guides="1" tooltips="1" connect="1" arrows="1" fold="1" page="1" pageScale="1" pageWidth="827" pageHeight="1169" math="0" shadow="0">
            <root>
                <mxCell id="0"/>
                <mxCell id="1" parent="0"/>
                <mxCell id="4" value="" style="edgeStyle=none;html=1;" edge="1" parent="1" source="2" target="3">
                    <mxGeometry relative="1" as="geometry"/>
                </mxCell>
                <mxCell id="2" value="PremiseTable" style="whiteSpace=wrap;html=1;" vertex="1" parent="1">
                    <mxGeometry x="100" y="260" width="120" height="60" as="geometry"/>
                </mxCell>
                <mxCell id="6" value="" style="edgeStyle=none;html=1;" edge="1" parent="1" source="3" target="5">
                    <mxGeometry relative="1" as="geometry"/>
                </mxCell>
                <mxCell id="3" value="AddPremise.modal&lt;br&gt;(responsible for opening and closing of modal and UI)" style="whiteSpace=wrap;html=1;" vertex="1" parent="1">
                    <mxGeometry x="301" y="260" width="120" height="60" as="geometry"/>
                </mxCell>
                <mxCell id="5" value="AddPromise.form&lt;br&gt;(responsible for submitting data to backend and form UI)" style="whiteSpace=wrap;html=1;" vertex="1" parent="1">
                    <mxGeometry x="520" y="260" width="120" height="60" as="geometry"/>
                </mxCell>
            </root>
        </mxGraphModel>
    </diagram>
</mxfile>